Coordinates
version=1
nRows=19
nColumns=24
inDegrees=yes

Units are S.I. units (second, meters, Newtons, ...)
Angles are in degrees.

endheader
time	pelvis_tilt	pelvis_list	pelvis_rotation	pelvis_tx	pelvis_ty	pelvis_tz	hip_flexion_r	hip_adduction_r	hip_rotation_r	knee_angle_r	ankle_angle_r	subtalar_angle_r	mtp_angle_r	hip_flexion_l	hip_adduction_l	hip_rotation_l	knee_angle_l	ankle_angle_l	subtalar_angle_l	mtp_angle_l	lumbar_extension	lumbar_bending	lumbar_rotation
      8.58000000	      3.74886016	      0.96850292	      2.97313486	     -0.20520701	      0.89054060	      0.20804156	      2.16319884	      5.44778894	     -0.46435981	    -12.14832792	     14.52535624	     -0.32601132	      0.00000000	      9.48789903	      0.45736451	     -2.74302647	    -67.12049929	     -7.39528288	      2.02781507	      0.00000000	    -22.23978058	     -0.56535836	     -7.90988612
      8.59000000	      3.59907040	      1.15605603	      2.94361422	     -0.19744961	      0.89107955	      0.20860450	      1.54268710	      5.28081349	     -0.71291408	    -11.73125644	     14.82535400	      0.04571877	      0.00000000	     11.17759071	      0.78613431	     -2.77157333	    -67.54276882	     -4.52199362	      2.59434539	      0.00000000	    -22.32171555	     -0.86942383	     -7.69399118
      8.60000000	      3.39214267	      1.37904608	      2.92805945	     -0.18981233	      0.89154084	      0.20900669	      1.01934239	      5.05460781	     -0.94405249	    -11.37888669	     15.14093811	      0.53388676	      0.00000000	     12.86456433	      1.20233420	     -2.78311160	    -67.62933935	     -1.74406389	      2.82636766	      0.00000000	    -22.37736861	     -1.17573222	     -7.60498676
      8.61000000	      3.26770883	      1.65332368	      2.88076520	     -0.18219456	      0.89207022	      0.20954076	      0.41044301	      4.79665547	     -1.10016772	    -11.02725556	     15.41046117	      0.82967474	      0.00000000	     14.36800320	      1.65344954	     -2.86913773	    -67.36026982	      0.75884086	      2.64704856	      0.00000000	    -22.55566772	     -1.57736537	     -7.49967073
      8.62000000	      3.06777790	      1.89904473	      2.85328391	     -0.17463452	      0.89241323	      0.20992386	     -0.07914966	      4.55025934	     -1.30223610	    -10.74005238	     15.70791651	      1.21695813	      0.00000000	     15.89378008	      2.09886847	     -2.95720439	    -66.80459094	      2.87827118	      1.95939248	      0.00000000	    -22.65349567	     -1.91398691	     -7.44457886
      8.63000000	      2.83198748	      2.07285835	      2.80670296	     -0.16709253	      0.89262649	      0.21021464	     -0.49663208	      4.36571228	     -1.60200911	    -10.49687824	     15.97006358	      1.71061947	      0.00000000	     17.38282803	      2.47944653	     -3.07060415	    -65.95969178	      4.53911992	      0.69273175	      0.00000000	    -22.71082637	     -2.13991236	     -7.33960945
      8.64000000	      2.66511426	      2.24628793	      2.78597870	     -0.15953911	      0.89282305	      0.21043515	     -1.02284952	      4.19865577	     -1.67162595	    -10.19843772	     16.17527292	      1.92817369	      0.00000000	     18.69738967	      2.87922827	     -3.12835885	    -64.81268197	      5.84602116	     -0.82324142	      0.00000000	    -22.85910292	     -2.34454779	     -7.31249042
      8.65000000	      2.46007536	      2.38368779	      2.70131881	     -0.15196179	      0.89284158	      0.21071524	     -1.45930686	      4.06295043	     -1.85347328	     -9.97699507	     16.46231845	      2.25384627	      0.00000000	     19.95012608	      3.20869083	     -3.27256083	    -63.37670098	      6.80446760	     -2.61166195	      0.00000000	    -22.94821770	     -2.53999531	     -7.20524625
      8.66000000	      2.25768167	      2.49296938	      2.62585600	     -0.14432285	      0.89282672	      0.21081570	     -1.91196163	      3.94587038	     -1.96855538	     -9.73846766	     16.65574952	      2.53982147	      0.00000000	     21.07250892	      3.54854287	     -3.32875722	    -61.62473114	      7.51479938	     -4.40309665	      0.00000000	    -23.02545961	     -2.65347372	     -7.08566527
      8.67000000	      2.07017023	      2.61137450	      2.46671890	     -0.13658749	      0.89275156	      0.21098289	     -2.34364834	      3.80292715	     -2.20467368	     -9.57377058	     16.99074246	      3.08766228	      0.00000000	     22.03299309	      3.85540701	     -3.46851968	    -59.54830444	      8.06692608	     -6.04910623	      0.00000000	    -23.09522960	     -2.80829850	     -6.93930331
      8.68000000	      1.86808051	      2.71760667	      2.41747421	     -0.12879023	      0.89257532	      0.21095035	     -2.80679631	      3.69192038	     -2.30108638	     -9.33328995	     17.19228177	      3.23446681	      0.00000000	     22.88711972	      4.21125262	     -3.42637002	    -57.18401856	      8.49983567	     -7.37111282	      0.00000000	    -23.13440670	     -2.90569565	     -6.82559781
      8.69000000	      1.69531452	      2.82845592	      2.29508763	     -0.12090372	      0.89238156	      0.21098687	     -3.28927739	      3.56614267	     -2.37116398	     -9.12447734	     17.43281309	      3.50620422	      0.00000000	     23.55545096	      4.53589152	     -3.44214676	    -54.50079368	      8.85627468	     -8.34279154	      0.00000000	    -23.19847934	     -3.03984497	     -6.69354793
      8.70000000	      1.50289449	      2.93117970	      2.20963717	     -0.11291705	      0.89211614	      0.21090191	     -3.76529315	      3.44633352	     -2.42860505	     -8.90260690	     17.60896919	      3.70762384	      0.00000000	     24.09842002	      4.88524595	     -3.33077251	    -51.52775782	      9.17300839	     -8.73007367	      0.00000000	    -23.22097248	     -3.14350214	     -6.54715647
      8.71000000	      1.47321615	      3.05104484	      2.03479951	     -0.10475388	      0.89202803	      0.21079703	     -4.42339362	      3.28845124	     -2.49990156	     -8.69031821	     17.85280813	      4.10370750	      0.00000000	     24.28527835	      5.22562200	     -3.27470609	    -48.21974621	      9.30163668	     -8.89480218	      0.00000000	    -23.39262592	     -3.24263630	     -6.33090568
      8.72000000	      1.38712462	      3.13031534	      1.93739280	     -0.09645958	      0.89172524	      0.21063312	     -5.04533433	      3.18753931	     -2.55143056	     -8.45097142	     18.03591655	      4.33385772	      0.00000000	     24.40400724	      5.55103034	     -3.08122107	    -44.68431573	      9.38308732	     -8.56821510	      0.00000000	    -23.47743760	     -3.29832425	     -6.18289766
      8.73000000	      1.20188865	      3.14032672	      1.86576033	     -0.08796733	      0.89112946	      0.21045102	     -5.58033451	      3.16461888	     -2.53738016	     -8.19854484	     18.15747953	      4.46554392	      0.00000000	     24.50918740	      5.80531866	     -2.84252638	    -40.95663789	      9.29727675	     -8.03366982	      0.00000000	    -23.38418374	     -3.27109315	     -6.08187869
      8.74000000	      1.12374561	      3.12041736	      1.73310106	     -0.07927280	      0.89055397	      0.21028016	     -6.25167433	      3.16397217	     -2.47114464	     -7.92822016	     18.27035128	      4.63369883	      0.00000000	     24.34763763	      6.01532701	     -2.58088724	    -37.00424923	      8.96117060	     -7.50228331	      0.00000000	    -23.39342246	     -3.21286218	     -5.86512449
      8.75000000	      1.04178147	      3.01355111	      1.61240177	     -0.07039142	      0.88978072	      0.21011341	     -6.92135094	      3.25997915	     -2.37263093	     -7.67885107	     18.35501400	      4.75091171	      0.00000000	     24.08796944	      6.12950898	     -2.27289914	    -32.93091970	      8.40186285	     -7.03158679	      0.00000000	    -23.34714040	     -3.06350575	     -5.63219548
      8.76000000	      0.99644188	      2.82000884	      1.45644357	     -0.06133548	      0.88885374	      0.20997622	     -7.63467209	      3.44321268	     -2.21171618	     -7.43872078	     18.40375389	      4.84924978	      0.00000000	     23.70433860	      6.12275286	     -2.02897801	    -28.78604655	      7.66330522	     -6.73707615	      0.00000000	    -23.32587402	     -2.81096849	     -5.32621392
